<?xml version="1.0" encoding="UTF-8"?>
<svg id="Layer_1" data-name="Layer 1" xmlns="http://www.w3.org/2000/svg" xmlns:xlink="http://www.w3.org/1999/xlink" viewBox="0 0 595.3 595.28">
  <defs>
    <style>
      .cls-1 {
        fill: none;
      }

      .cls-2 {
        clip-path: url(#clippath);
      }

      .cls-3 {
        fill: #fff;
      }
    </style>
    <clipPath id="clippath">
      <rect class="cls-1" width="595.28" height="595.28"/>
    </clipPath>
  </defs>
  <rect id="Eye" class="cls-1" width="595.28" height="595.28"/>
  <rect id="Eye-2" data-name="Eye" class="cls-1" width="595.28" height="595.28"/>
  <g class="cls-2">
    <path class="cls-3" d="M299,139.52c113.35,.88,232.17,45.27,289.4,142.28,2.72,4.61,6.15,11.53,6.15,11.53,3.44,9.19-5.74,19.39-12.66,29.78-60.16,90.22-174.99,132.64-286.04,132.64S63.02,411.83,7.27,313.5c-2.86-5.05-6.41-12.65-6.41-12.65-2.42-6.95,3.35-14.6,7.83-22.1,54.91-92.01,169.82-138.32,284.97-139.22,1.78,0,3.56,0,5.34,0h0Zm-5.24,38.6c-100.57,.79-183.43,16.26-240.67,97.23-4.92,6.95-9.46,14.19-13.34,21.77,0,0,14.33,26.19,31.47,45.21,62.21,68.99,139.08,83.66,232.87,81.71,106.17-2.21,199.91-30.95,250.97-125.57,0,0,.21-2.11-.78-3.9-50.44-89.95-144.44-115.58-255.38-116.45-1.72,0-3.43,0-5.14,0h0Zm4.78,49.76c46.06,.87,83.6,55.14,61.97,100-18.89,39.18-78.38,51.35-110.99,20.24-38.31-36.53-16.56-119.03,47.22-120.24q.9,0,1.8,0h0Zm-4.56,22.6c-33.74,.64-48.28,36.48-32.45,69.31,13.86,28.76,44.47,34.68,68.39,11.86,16.09-15.34,18.43-37.66,7.7-57.39-8.93-16.44-23.57-23.92-43.65-23.79Z"/>
  </g>
</svg>