<?xml version="1.0" encoding="utf-8"?>
<!-- Generator: Adobe Illustrator 27.0.0, SVG Export Plug-In . SVG Version: 6.00 Build 0)  -->
<svg version="1.1" id="Layer_1" xmlns:serif="http://www.serif.com/"
	 xmlns="http://www.w3.org/2000/svg" xmlns:xlink="http://www.w3.org/1999/xlink" x="0px" y="0px" viewBox="0 0 595.3 841.9"
	 style="enable-background:new 0 0 595.3 841.9;" xml:space="preserve">
<style type="text/css">
	.st0{fill:none;}
	.st1{clip-path:url(#SVGID_00000172420245661283087920000002321520650920846236_);}
</style>
<rect id="Eye" x="0.7" y="123.3" class="st0" width="595.3" height="595.3"/>
<g>
	<defs>
		<rect id="SVGID_1_" x="0.7" y="123.3" width="595.3" height="595.3"/>
	</defs>
	<clipPath id="SVGID_00000054245102270316799230000003123034819343768748_">
		<use xlink:href="#SVGID_1_"  style="overflow:visible;"/>
	</clipPath>
	<g style="clip-path:url(#SVGID_00000054245102270316799230000003123034819343768748_);">
		<path d="M299.7,262.8c113.4,0.9,232.2,45.3,289.4,142.3c2.7,4.6,6.2,11.5,6.2,11.5c3.4,9.2-5.7,19.4-12.7,29.8
			c-60.2,90.2-175,132.6-286,132.6C183.7,579.1,63.7,535.1,8,436.8c-2.9-5-6.4-12.7-6.4-12.7c-2.4-6.9,3.4-14.6,7.8-22.1
			c54.9-92,169.8-138.3,285-139.2C296.1,262.8,297.9,262.8,299.7,262.8L299.7,262.8z M294.5,301.4c-100.6,0.8-183.4,16.3-240.7,97.2
			c-4.9,7-9.5,14.2-13.3,21.8c0,0,14.3,26.2,31.5,45.2c62.2,69,139.1,83.7,232.9,81.7c106.2-2.2,199.9-30.9,251-125.6
			c0,0,0.2-2.1-0.8-3.9c-50.4-90-144.4-115.6-255.4-116.4C297.9,301.4,296.2,301.4,294.5,301.4L294.5,301.4z M299.2,351.2
			c46.1,0.9,83.6,55.1,62,100c-18.9,39.2-78.4,51.3-111,20.2c-38.3-36.5-16.6-119,47.2-120.2C298.3,351.2,298.3,351.2,299.2,351.2
			L299.2,351.2z M294.7,373.8c-33.7,0.6-48.3,36.5-32.5,69.3c13.9,28.8,44.5,34.7,68.4,11.9c16.1-15.3,18.4-37.7,7.7-57.4
			C329.4,381.1,314.8,373.7,294.7,373.8z"/>
	</g>
</g>
</svg>
