<?xml version="1.0" encoding="iso-8859-1"?>
<!-- Generator: Adobe Illustrator 16.0.0, SVG Export Plug-In . SVG Version: 6.00 Build 0)  -->
<!DOCTYPE svg PUBLIC "-//W3C//DTD SVG 1.1//EN" "http://www.w3.org/Graphics/SVG/1.1/DTD/svg11.dtd">
<svg version="1.1" id="Capa_1" xmlns="http://www.w3.org/2000/svg" xmlns:xlink="http://www.w3.org/1999/xlink" x="0px" y="0px"
	 width="450.791px" height="450.792px" viewBox="0 0 450.791 450.792" style="enable-background:new 0 0 450.791 450.792;"
	 xml:space="preserve">
<g>
	<path d="M225.395,0C101.113,0,0,101.112,0,225.392c0,124.285,101.113,225.398,225.395,225.398
		c124.282,0,225.396-101.113,225.396-225.398C450.791,101.112,349.677,0,225.395,0z M225.395,428.375
		c-111.927,0-202.981-91.054-202.981-202.983c0-111.924,91.054-202.978,202.981-202.978c111.927,0,202.98,91.054,202.98,202.978
		C428.375,337.322,337.321,428.375,225.395,428.375z M156.183,192.721c-19.622,0-35.536-15.913-35.536-35.54
		c0-19.628,15.914-35.543,35.536-35.543c19.634,0,35.548,15.915,35.548,35.543C191.731,176.809,175.816,192.721,156.183,192.721z
		 M337.458,157.181c0,19.627-15.913,35.54-35.546,35.54c-19.621,0-35.533-15.913-35.533-35.54c0-19.628,15.912-35.543,35.533-35.543
		C321.545,121.638,337.458,137.553,337.458,157.181z M137.534,282.793l179.305,48.328l-5.832,21.637L131.7,304.431L137.534,282.793z
		"/>
</g>
<g>
</g>
<g>
</g>
<g>
</g>
<g>
</g>
<g>
</g>
<g>
</g>
<g>
</g>
<g>
</g>
<g>
</g>
<g>
</g>
<g>
</g>
<g>
</g>
<g>
</g>
<g>
</g>
<g>
</g>
</svg>
