<svg width="101" height="110" viewBox="0 0 101 110" fill="none" xmlns="http://www.w3.org/2000/svg">
<path d="M0 15.541V94.6226H16.409V63.87C16.409 63.87 13.0385 64.7279 13.0385 61.2993C13.0385 57.8707 16.4749 58.7286 16.4749 58.7286L16.412 54.0775V26.1705C16.412 26.1705 19.4499 26.1078 19.4499 23.1395C19.4499 20.1713 16.4749 20.1713 16.4749 20.1713V15.4603L0 15.538V15.541Z" fill="#FF0000"/>
<path d="M19.0844 54.0864C19.0844 54.0864 41.2875 59.0245 41.2007 42.1626C41.1198 26.1735 18.7908 29.5991 18.7908 29.5991V27.0284C18.7908 27.0284 22.2271 26.1705 22.2271 24.4577C22.2271 22.7449 23.087 20.1742 19.6506 19.3163V15.7293C19.6506 15.7293 61.3216 11.9211 57.6605 43.8933C53.9995 75.8656 19.0844 68.1654 19.0844 68.1654L19.6506 63.0121C19.6506 63.0121 17.0741 63.87 16.2142 63.0121C15.3544 62.1542 16.2142 59.5835 16.2142 59.5835H18.7908L19.0844 54.0834V54.0864Z" fill="#FF0000"/>
<path d="M99.0468 20.6055C98.8684 13.87 95.8312 8.13987 88.7444 7.04887C85.0098 6.45483 80.3231 6.57733 77.784 9.72322C76.2156 11.6463 75.5113 14.219 75.7082 16.6923C75.736 16.9812 75.8264 18.1739 75.8519 18.4929C77.8906 44.1038 78.2775 69.7979 77.0797 95.4712C76.9291 98.3166 76.1137 100.979 74.6032 103.423C71.1883 108.861 65.0954 110.142 59.2132 108.432C54.559 107.1 49.5456 104.46 47.8892 99.6156C46.988 96.9159 47.3911 93.8809 48.8251 91.4816C48.6792 92.3369 48.649 93.199 48.7046 94.0543C49.0243 99.3845 53.0253 101.791 57.9321 102.523C60.9624 102.965 64.8452 103.286 66.8584 100.767C67.9681 99.2735 68.3295 97.0869 68.1279 95.2909C66.1124 69.8233 65.5054 44.3072 65.9062 18.7818L65.934 17.4828L65.9525 16.6876C66.1634 9.50363 70.8964 2.19482 78.1477 0.484342C82.2576 -0.532697 86.5018 0.14687 90.3707 1.64007C98.4514 4.75822 101.855 12.5478 99.0468 20.6102V20.6055Z" fill="black"/>
<path d="M43.1422 55.1156C47.9146 54.2511 52.8701 53.8188 57.5799 53.1069C60.7955 52.573 65.8135 51.898 68.0051 49.8154C74.1861 41.6097 86.2099 41.2861 94.8141 45.2456C95.9957 45.7819 97.1494 46.3967 98.2197 47.185C96.9247 47.4485 95.6875 47.675 94.469 47.8969C89.1799 48.9301 83.3302 49.8385 78.7964 52.4551C77.5477 53.1947 76.4357 54.0962 75.5414 55.2219C74.6796 56.336 73.4934 57.3669 72.342 58.0511C64.1803 62.9051 50.7155 59.8933 43.1422 55.1179V55.1156Z" fill="black"/>
</svg>
