<?xml version="1.0" encoding="UTF-8"?>
<svg id="Layer_1" data-name="Layer 1" xmlns="http://www.w3.org/2000/svg" viewBox="0 0 1755 472">
  <defs>
    <style>
      .cls-1, .cls-2 {
        fill: #ed2224;
      }

      .cls-3 {
        fill: #fff;
      }

      .cls-2 {
        stroke: #fff;
        stroke-miterlimit: 10;
      }
    </style>
  </defs>
  <g id="Layer_2" data-name="Layer 2">
    <path class="cls-2" d="M4.12,132.15v255H58.6v-99.16s-11.19,2.77-11.19-8.29,11.41-8.29,11.41-8.29l-.21-15v-89.99s10.09-.2,10.09-9.77-9.88-9.57-9.88-9.57v-15.19l-54.7,.25h0Z"/>
    <path class="cls-1" d="M73.45,256.44s73.72,15.92,73.43-38.45c-.27-51.56-74.4-40.51-74.4-40.51v-8.29s11.41-2.77,11.41-8.29,2.85-13.81-8.55-16.58v-11.57s138.35-12.28,126.2,90.82c-12.15,103.1-128.08,78.27-128.08,78.27l1.88-16.62s-8.55,2.77-11.41,0,0-11.06,0-11.06h8.55l.97-17.74h0Z"/>
    <path class="cls-1" d="M222.79,188.51h51.89l.75,126.12s-.14,40.78,36.32,40.9l.82,13.98s-11.41-2.75-11.41,9.24,11.41,12.33,11.41,12.33v14.92s-76.98,9.73-87.63-72.91c-4.04-31.3-2.14-144.58-2.14-144.58h0Z"/>
    <path class="cls-1" d="M326.93,355.51l.15,17.08s-11.41-3.08-11.41,6.16,11.41,9.24,11.41,9.24l.06,18.07s74.06-2.67,82.62-64.29c6.82-49.13,2.61-153.27,2.61-153.27h-51.89s3.66,107.06-2.04,137.86c-3.54,19.1-17.11,27.73-31.51,29.14h0Z"/>
    <path class="cls-1" d="M443.97,188.14v41.44h111.2s0-11.06,11.41-11.06,11.41,11.06,11.41,11.06h17.11l5.7-5.52v-35.91h-156.82Z"/>
    <path class="cls-1" d="M592.22,243.78h-17.11s0-11.06-8.55-11.06-8.55,11.06-8.55,11.06h-22.81l-85.53,104.99h19.95s0-11.06,11.41-11.06,11.41,11.06,11.41,11.06h14.25l85.53-104.99h0Z"/>
    <path class="cls-1" d="M606.48,359.37v41.44h-165.37v-33.16l5.7-5.52h25.66s0-9.67,9.98-9.67,7.13,9.67,7.13,9.67l116.89-2.77h0Z"/>
    <path class="cls-1" d="M641.91,188.14v41.44h111.2s0-11.06,11.41-11.06,11.41,11.06,11.41,11.06h17.11l5.7-5.52v-35.91h-156.82Z"/>
    <path class="cls-1" d="M790.17,243.78h-17.11s0-11.06-8.55-11.06-8.55,11.06-8.55,11.06h-22.81l-85.53,104.99h19.95s0-11.06,11.41-11.06,11.41,11.06,11.41,11.06h14.25l85.53-104.99Z"/>
    <path class="cls-1" d="M804.42,359.37v41.44h-165.37v-33.16l5.7-5.52h25.66s0-9.67,9.98-9.67,7.13,9.67,7.13,9.67l116.89-2.77h0Z"/>
    <path class="cls-1" d="M837.41,114.64h51.32v204.45h-14.25s0-9.67-9.98-9.67-9.98,9.67-9.98,9.67h-17.11V114.64h0Z"/>
    <path class="cls-1" d="M837.41,330.52h19.95s0-8.29,5.7-8.29,8.55,8.29,8.55,8.29h17.11v60.78h-51.32v-60.78h0Z"/>
    <path class="cls-1" d="M980.63,273.34h96.48s-.99,6.75,7.96,6.75,6.96-6.75,6.96-6.75h26.86s2.98,21.21,.99,33.74h-140.25v-10.6s6.47,.96,6.47-6.27-6.47-5.3-6.47-5.3l.99-11.57Z"/>
    <path class="cls-1" d="M1056.22,258.88h20.89s0,7.71,6.96,7.71,5.97-7.71,5.97-7.71h25.86s-15.91-74.22-101.46-76.15c-85.54-1.93-100.46,84.82-98.47,95.42,1.99,10.6,0,23.13,4.97,36.63l17.9-6.75s-2.98-8.67,3.98-10.6,11.94,7.71,11.94,7.71l14.92-4.82-1.99-4.82v.96s6.96-.96,6.96-5.78-6.96-5.78-6.96-5.78c0,0-5.97-50.12,25.86-58.8,8.18-2.23,24.87-8.67,45.76,2.89,11.75,6.51,14.92,20.24,16.91,29.88Z"/>
    <path class="cls-1" d="M1061.2,332.13l45.76,14.46s-15.91,53.01-95.49,52.05c-79.57-.96-87.53-66.51-87.53-66.51l17.9-5.78s-1.99-9.64,4.97-11.57c6.05-1.68,9.95,6.75,9.95,6.75l15.91-3.86s.99,32.77,40.78,38.55c22.63,3.29,44.76-14.46,47.74-24.1Z"/>
  </g>
  <g id="Layer_3" data-name="Layer 3">
    <path class="cls-3" d="M1353.96,93.8c-.77-28.09-13.81-51.98-44.23-56.53-16.03-2.48-36.16-1.97-47.06,11.15-6.73,8.02-9.76,18.75-8.91,29.06,.12,1.2,.51,6.18,.62,7.51,8.75,106.8,10.41,213.94,5.27,321-.65,11.87-4.15,22.97-10.63,33.16-14.66,22.68-40.82,28.02-66.08,20.89-19.98-5.55-41.51-16.56-48.62-36.76-3.87-11.26-2.14-23.91,4.02-33.92-.63,3.57-.76,7.16-.52,10.73,1.37,22.23,18.55,32.26,39.62,35.32,13.01,1.84,29.68,3.18,38.33-7.33,4.76-6.23,6.32-15.34,5.45-22.83-8.65-106.2-11.26-212.6-9.54-319.04l.12-5.42,.08-3.32c.91-29.96,21.23-60.43,52.36-67.57,17.65-4.24,35.87-1.41,52.48,4.82,34.69,13,49.31,45.49,37.25,79.11h0v-.02Z"/>
    <path class="cls-3" d="M1113.93,237.7c20.49-3.6,41.77-5.41,61.99-8.38,13.81-2.23,35.35-5.04,44.76-13.73,26.54-34.22,78.16-35.57,115.1-19.06,5.07,2.24,10.03,4.8,14.62,8.09-5.56,1.1-10.87,2.04-16.1,2.97-22.71,4.31-47.82,8.1-67.29,19.01-5.36,3.08-10.14,6.84-13.98,11.54-3.7,4.65-8.79,8.94-13.74,11.8-35.04,20.24-92.85,7.68-125.37-12.23h0Z"/>
    <path class="cls-3" d="M1381.29,87.39c11.5,64.82,11.26,132.03,13.72,197.03,1.25,26.88,1.7,53.44,7.65,79.28,1.51,6.22,3.87,12.22,6.88,17.01,13.02,4.82,24.63,5.26,34.12-5.32,5.53-6.06,9.19-13.18,12.17-20.9,1.47,4.16,2.12,8.58,2.37,13.11,.87,15.45-6.39,31.4-21.09,39.23-10.1,5.56-21.54,7.03-32.8,6.51-26.05-2.35-39.82-27.99-46.88-49.06-25.09-78.26-9.44-202.27,23.86-276.9h0Z"/>
    <path class="cls-3" d="M1502.81,241.26c10.34,24.96,13.96,51.95,15.8,78.45,1.31,19.16,.76,38.42,1.98,57.08,.04,1.65,.49,3.1-1.03,1.92-.58-.46-2.92-1.99-4.48-2.41-.69-.24-1.52-.47-2.25-.57,.17,.12,.49,.3,.66,.4,1.08,.75,2.35,1.49,3.47,2.17,10.83,6.77,22.21,3.99,33.6-1.99,.82,5.35-.32,10.71-2.53,15.7-6.88,15.5-24.78,23.08-41.76,22.09-1.79-.14-3.97-.14-5.7-.7-18.14-5.33-24.99-24.32-28.2-40.1-7.96-42.72,3.73-97.34,30.42-132.05h.02Z"/>
    <path class="cls-3" d="M1500.86,197.25c15.81,3.76,34.84,13.18,20.73,26.29-3.75,3.16-8.93,6.39-19.18,9.82-10.49-2.59-15.94-5.39-19.95-8.24-15.2-11.93,2.96-22.85,18.39-27.88h.01Z"/>
    <path class="cls-3" d="M1555.61,236.75c10.7-6.91,26.44-4.03,37.8-.08,29.02,10.83,51.02,34.07,67.57,58.61,23.11,38.81,59.63,70.98,89.53,106.24-34.89,.11-72.5-16.99-98.16-39.36-9.38-8.16-17.76-17.46-24.69-27.69-2.98-4.25-6.3-10.25-8.88-14.81-7.07-12.61-15-26.84-22.45-39.01-9.41-14.83-23.18-37.93-40.71-43.9h0Z"/>
    <path class="cls-3" d="M1745.84,234.49c-35.02,9.07-52.53,57.46-64.72,87.29-9.82,25.75-28.39,48.96-52.84,62.97-21.38,12.22-48.5,18.9-72.67,12.27,25.26-17.83,48.21-38.91,64.33-64.38,4.9-7.65,9.22-15.59,13.08-23.91,2.14-4.58,4.66-10.58,7.04-15,8.46-16.38,19.03-31.33,33.46-43.91,14.61-12.67,34.1-22.6,54.22-21.21,6.41,.56,13,2.11,18.12,5.89h-.02Z"/>
  </g>
</svg>