<?xml version="1.0" encoding="utf-8"?>
<!-- Generator: Adobe Illustrator 27.0.0, SVG Export Plug-In . SVG Version: 6.00 Build 0)  -->
<svg version="1.1" id="Layer_1" xmlns:serif="http://www.serif.com/"
	 xmlns="http://www.w3.org/2000/svg" xmlns:xlink="http://www.w3.org/1999/xlink" x="0px" y="0px" viewBox="0 0 595.3 841.9"
	 style="enable-background:new 0 0 595.3 841.9;" xml:space="preserve">
<style type="text/css">
	.st0{fill:none;}
</style>
<rect id="Eye" x="0.7" y="123.3" class="st0" width="595.3" height="595.3"/>
<g>
	<path class="st0" d="M330.6,455c16.1-15.3,18.4-37.7,7.7-57.4c-1.1-2-2.2-3.8-3.4-5.5l-53.2,72.4C296.5,472.5,315,469.9,330.6,455z
		"/>
	<path class="st0" d="M294.7,373.8c-33.7,0.6-48.3,36.5-32.5,69.3c1.6,3.3,3.4,6.3,5.4,9l53.4-72.4
		C313.7,375.6,304.9,373.7,294.7,373.8z"/>
	<path class="st0" d="M361.2,451.2c-15.8,32.8-60.1,46.7-93.2,32l-44.2,60.2c25.5,3.6,52.5,4.5,81,3.9
		c106.2-2.2,199.9-30.9,251-125.6c0,0,0.2-2.1-0.8-3.9c-35.2-62.7-91.5-94.1-160-107.7l-47.2,64.4
		C366,394.6,374.1,424.6,361.2,451.2z"/>
	<path class="st0" d="M250.2,471.4c-38.3-36.5-16.6-119,47.2-120.2c0.9,0,0.9,0,1.8,0c12.5,0.2,24.3,4.4,34.6,11.2l41.1-55.7
		c-23.9-3.5-49.1-5.1-75.3-5.3c-1.7,0-3.4,0-5.1,0v0c-100.6,0.8-183.4,16.3-240.7,97.2c-4.9,7-9.5,14.2-13.3,21.8
		c0,0,14.3,26.2,31.5,45.2c38,42.2,81.5,64,131,74.2l49.2-66.7C251.5,472.6,250.9,472,250.2,471.4z"/>
	<path class="st0" d="M582.6,446.4c-60.2,90.2-175,132.6-286,132.6c-30.5,0-61.5-3.2-91.7-9.8L101.2,710.4l-16.9-9.6L185,564.3
		C111.4,544.1,45.3,502.7,8,436.8c-2.9-5-6.4-12.7-6.4-12.7c-2.4-6.9,3.4-14.6,7.8-22.1c54.9-92,169.8-138.3,285-139.2
		c1.8,0,3.6,0,5.3,0v0c33,0.3,66.4,4.2,98.6,12l99.1-134.4l13.5,11.7l-93.8,127.8c71.1,21,134.6,61.9,171.9,125.2
		c2.7,4.6,6.2,11.5,6.2,11.5c0.4,1.1,0.7,2.3,0.7,3.5V123.3H0.7v595.3H596V421.4C595.6,429.3,588.3,437.8,582.6,446.4z"/>
	<path d="M297.4,351.2c-63.8,1.2-85.5,83.7-47.2,120.2c0.6,0.6,1.3,1.2,1.9,1.7l15.5-21.1c-2-2.7-3.8-5.7-5.4-9
		c-15.8-32.8-1.3-68.7,32.5-69.3c10.2-0.1,19,1.8,26.4,5.9l12.7-17.3c-10.2-6.8-22.1-11-34.6-11.2
		C298.3,351.2,298.3,351.2,297.4,351.2z"/>
	<path d="M71.9,465.6c-17.1-19-31.5-45.2-31.5-45.2c3.9-7.6,8.4-14.8,13.3-21.8c57.2-81,140.1-96.4,240.7-97.2v0c1.7,0,3.4,0,5.1,0
		c26.1,0.2,51.4,1.8,75.3,5.3l23.5-31.8c-32.2-7.8-65.7-11.8-98.6-12v0c-1.8,0-3.6,0-5.3,0C179.2,263.7,64.3,310,9.4,402
		c-4.5,7.5-10.2,15.2-7.8,22.1c0,0,3.6,7.6,6.4,12.7c37.3,65.9,103.5,107.3,177,127.5l18-24.4C153.5,529.7,110,507.8,71.9,465.6z"/>
	<path d="M338.3,397.6c10.7,19.7,8.4,42.1-7.7,57.4c-15.6,14.9-34.1,17.5-48.9,9.6L268,483.2c33.1,14.6,77.4,0.8,93.2-32
		c12.8-26.6,4.8-56.6-13.4-76.7l-12.9,17.6C336.1,393.8,337.3,395.6,338.3,397.6z"/>
	<path d="M589.1,405.1C551.8,341.9,488.3,301,417.2,279.9L395,310.1c68.5,13.6,124.8,45,160,107.7c1,1.8,0.8,3.9,0.8,3.9
		c-51.1,94.6-144.8,123.4-251,125.6c-28.6,0.6-55.5-0.4-81-3.9l-18.9,25.8c30.1,6.6,61.2,9.8,91.7,9.8c111.1,0,225.9-42.4,286-132.6
		c5.8-8.6,13-17.1,13.4-25v-1.3c-0.1-1.2-0.3-2.3-0.7-3.5C595.3,416.6,591.8,409.7,589.1,405.1z"/>
	<path d="M281.7,464.5l53.2-72.4c-3.8-5.3-8.4-9.4-13.8-12.4l-53.4,72.4C271.7,457.5,276.5,461.7,281.7,464.5z"/>
	<path d="M511,152.2l-13.5-11.7l-99.1,134.4c6.3,1.5,12.6,3.2,18.8,5.1L511,152.2z"/>
	<path d="M84.3,700.8l16.9,9.6l103.6-141.2c-6.7-1.5-13.3-3.1-19.9-4.9L84.3,700.8z"/>
	<path d="M252.1,473.2L203,539.9c6.8,1.4,13.8,2.6,20.8,3.6l44.2-60.2C262.3,480.7,257,477.4,252.1,473.2z"/>
	<path d="M333.8,362.4c5.1,3.4,9.8,7.5,14,12.1l47.2-64.4c-6.6-1.3-13.3-2.5-20.1-3.5L333.8,362.4z"/>
	<path d="M267.7,452.1l-15.5,21.1c4.8,4.2,10.2,7.6,15.8,10.1l13.7-18.7C276.5,461.7,271.7,457.5,267.7,452.1z"/>
	<path d="M203,539.9l-18,24.4c6.6,1.8,13.2,3.4,19.9,4.9l18.9-25.8C216.7,542.5,209.8,541.3,203,539.9z"/>
	<path d="M395,310.1l22.2-30.2c-6.2-1.8-12.5-3.5-18.8-5.1l-23.5,31.8C381.7,307.7,388.4,308.8,395,310.1z"/>
	<path d="M334.9,392.1l12.9-17.6c-4.2-4.6-8.9-8.7-14-12.1l-12.7,17.3C326.4,382.7,331.1,386.8,334.9,392.1z"/>
</g>
</svg>
