<?xml version="1.0" encoding="UTF-8"?>
<svg xmlns="http://www.w3.org/2000/svg" viewBox="0 0 1756.23 472.18">
  <defs>
    <style>
      .cls-1, .cls-2 {
        fill: red;
      }

      .cls-2 {
        stroke: #fff;
        stroke-miterlimit: 10;
      }
    </style>
  </defs>
  <g id="Layer_2" data-name="Layer 2">
    <path class="cls-2" d="M.5,128.95V393.51H55.27v-102.88s-11.25,2.87-11.25-8.6,11.47-8.6,11.47-8.6l-.21-15.56v-93.36s10.14-.21,10.14-10.14-9.93-9.93-9.93-9.93v-15.76l-54.99,.26Z"/>
    <path class="cls-1" d="M70.2,257.9s74.11,16.52,73.82-39.89c-.27-53.49-74.8-42.03-74.8-42.03v-8.6s11.47-2.87,11.47-8.6,2.87-14.33-8.6-17.2v-12s139.09-12.74,126.87,94.22-128.76,81.2-128.76,81.2l1.89-17.24s-8.6,2.87-11.47,0,0-11.47,0-11.47h8.6l.98-18.4Z"/>
    <path class="cls-1" d="M220.34,187.43h52.17l.75,130.85s-.14,42.31,36.51,42.43l.82,14.5s-11.47-2.85-11.47,9.59,11.47,12.79,11.47,12.79v15.48s-77.39,10.09-88.1-75.64c-4.06-32.47-2.15-150-2.15-150Z"/>
    <path class="cls-1" d="M325.04,360.68l.15,17.72s-11.47-3.2-11.47,6.39,11.47,9.59,11.47,9.59l.06,18.75s74.46-2.77,83.06-66.7c6.86-50.97,2.62-159.01,2.62-159.01h-52.17s3.68,111.07-2.05,143.03c-3.56,19.82-17.2,28.77-31.68,30.23Z"/>
    <path class="cls-1" d="M442.7,187.04v42.99h111.79s0-11.47,11.47-11.47,11.47,11.47,11.47,11.47h17.2l5.73-5.73v-37.26h-157.65Z"/>
    <path class="cls-1" d="M591.75,244.77h-17.2s0-11.47-8.6-11.47-8.6,11.47-8.6,11.47h-22.93l-85.99,108.92h20.06s0-11.47,11.47-11.47,11.47,11.47,11.47,11.47h14.33l85.99-108.92Z"/>
    <path class="cls-1" d="M606.08,364.69v42.99h-166.25v-34.4l5.73-5.73h25.8s0-10.03,10.03-10.03,7.17,10.03,7.17,10.03l117.52-2.87Z"/>
    <path class="cls-1" d="M641.7,187.04v42.99h111.79s0-11.47,11.47-11.47,11.47,11.47,11.47,11.47h17.2l5.73-5.73v-37.26h-157.65Z"/>
    <path class="cls-1" d="M790.75,244.77h-17.2s0-11.47-8.6-11.47-8.6,11.47-8.6,11.47h-22.93l-85.99,108.92h20.06s0-11.47,11.47-11.47,11.47,11.47,11.47,11.47h14.33l85.99-108.92Z"/>
    <path class="cls-1" d="M805.08,364.69v42.99h-166.25v-34.4l5.73-5.73h25.8s0-10.03,10.03-10.03,7.17,10.03,7.17,10.03l117.52-2.87Z"/>
    <path class="cls-1" d="M838.25,110.79h51.59v212.11h-14.33s0-10.03-10.03-10.03-10.03,10.03-10.03,10.03h-17.2V110.79Z"/>
    <path class="cls-1" d="M838.25,334.76h20.06s0-8.6,5.73-8.6,8.6,8.6,8.6,8.6h17.2v63.06h-51.59v-63.06Z"/>
    <path class="cls-1" d="M982.23,275.43h97s-1,7,8,7,7-7,7-7h27s3,22,1,35h-141v-11s6.5,1,6.5-6.5-6.5-5.5-6.5-5.5l1-12Z"/>
    <path class="cls-1" d="M1058.23,260.43h21s0,8,7,8,6-8,6-8h26s-16-77-102-79-101,88-99,99,0,24,5,38l18-7s-3-9,4-11,12,8,12,8l15-5-2-5v1s7-1,7-6-7-6-7-6c0,0-6-52,26-61,8.22-2.31,25-9,46,3,11.81,6.75,15,21,17,31Z"/>
    <path class="cls-1" d="M1063.23,336.43l46,15s-16,55-96,54-88-69-88-69l18-6s-2-10,5-12c6.08-1.74,10,7,10,7l16-4s1,34,41,40c22.75,3.41,45-15,48-25Z"/>
  </g>
  <g id="Layer_3" data-name="Layer 3">
    <path d="M1357.56,89.16c-.77-29.14-13.88-53.93-44.47-58.65-16.12-2.57-36.35-2.04-47.31,11.57-6.77,8.32-9.81,19.45-8.96,30.15,.12,1.25,.51,6.41,.62,7.79,8.8,110.8,10.47,221.96,5.3,333.03-.65,12.31-4.17,23.83-10.69,34.4-14.74,23.53-41.04,29.07-66.43,21.67-20.09-5.76-41.73-17.18-48.88-38.14-3.89-11.68-2.15-24.81,4.04-35.19-.63,3.7-.76,7.43-.52,11.13,1.38,23.06,18.65,33.47,39.83,36.64,13.08,1.91,29.84,3.3,38.53-7.6,4.79-6.46,6.35-15.92,5.48-23.69-8.7-110.18-11.32-220.57-9.59-331,0,0,.12-5.62,.12-5.62,0,0,.08-3.44,.08-3.44,.91-31.08,21.34-62.7,52.64-70.1,17.74-4.4,36.06-1.46,52.76,5,34.88,13.49,49.57,47.19,37.45,82.07h0Z"/>
    <path d="M1116.25,238.46c20.6-3.74,41.99-5.61,62.32-8.69,13.88-2.31,35.54-5.23,45-14.24,26.68-35.5,78.58-36.9,115.72-19.77,5.1,2.32,10.08,4.98,14.7,8.39-5.59,1.14-10.93,2.12-16.19,3.08-22.83,4.47-48.08,8.4-67.65,19.72-5.39,3.2-10.19,7.1-14.05,11.97-3.72,4.82-8.84,9.28-13.81,12.24-35.23,21-93.35,7.97-126.04-12.69h0Z"/>
    <path d="M1385.04,82.51c11.56,67.25,11.32,136.98,13.79,204.42,1.26,27.89,1.71,55.44,7.69,82.25,1.52,6.45,3.89,12.68,6.92,17.65,13.09,5,24.76,5.46,34.3-5.52,5.56-6.29,9.24-13.67,12.24-21.68,1.48,4.32,2.13,8.9,2.38,13.6,.87,16.03-6.42,32.58-21.2,40.7-10.15,5.77-21.66,7.29-32.98,6.75-26.19-2.44-40.03-29.04-47.13-50.9-25.22-81.19-9.49-209.85,23.99-287.28h0Z"/>
    <path d="M1507.21,242.15c10.4,25.9,14.03,53.9,15.88,81.39,1.32,19.88,.76,39.86,1.99,59.22,.04,1.71,.49,3.22-1.04,1.99-.58-.48-2.94-2.06-4.5-2.5-.69-.25-1.53-.49-2.26-.59,.17,.12,.49,.31,.66,.42,1.09,.78,2.36,1.55,3.49,2.25,10.89,7.02,22.33,4.14,33.78-2.06,.82,5.55-.32,11.11-2.54,16.29-6.92,16.08-24.91,23.95-41.98,22.92-1.8-.15-3.99-.15-5.73-.73-18.24-5.53-25.12-25.23-28.35-41.6-8-44.32,3.75-100.99,30.58-137h0Z"/>
    <path d="M1505.25,196.49c15.89,3.9,35.03,13.67,20.84,27.28-3.77,3.28-8.98,6.63-19.28,10.19-10.55-2.69-16.03-5.59-20.06-8.55-15.28-12.38,2.98-23.71,18.49-28.92h0Z"/>
    <path d="M1560.29,237.47c10.76-7.17,26.58-4.18,38-.08,29.18,11.24,51.29,35.35,67.93,60.81,23.23,40.26,59.95,73.64,90.01,110.22-35.08,.11-72.89-17.63-98.68-40.84-9.43-8.47-17.85-18.11-24.82-28.73-3-4.41-6.33-10.63-8.93-15.37-7.11-13.08-15.08-27.85-22.57-40.47-9.46-15.39-23.3-39.35-40.93-45.55h0Z"/>
    <path d="M1751.54,235.13c-35.21,9.41-52.81,59.61-65.07,90.56-9.87,26.72-28.54,50.79-53.12,65.33-21.49,12.68-48.76,19.61-73.06,12.73,25.4-18.5,48.47-40.37,64.67-66.79,4.93-7.94,9.27-16.17,13.15-24.81,2.15-4.75,4.68-10.98,7.08-15.56,8.51-16.99,19.13-32.5,33.64-45.56,14.69-13.14,34.28-23.45,54.51-22.01,6.44,.58,13.07,2.19,18.22,6.11h0Z"/>
  </g>
</svg>